<svg xmlns="http://www.w3.org/2000/svg" viewBox="0 0 80 80"><defs><style>.cls-1{fill:#a9b9cb;}.cls-2{fill:#7f8b99;}.cls-3{fill:#fff;}.cls-4{fill:none;}</style></defs><g id="レイヤー_2" data-name="レイヤー 2"><g id="レイヤー_1-2" data-name="レイヤー 1"><path class="cls-1" d="M75.55,23.52A7,7,0,0,0,74.68,20a6.68,6.68,0,0,0-2.57-2.51Q57.91,9.25,43.7,1.08a7,7,0,0,0-7.55.07C32.38,3.38,13.51,14.2,7.89,17.45a6.6,6.6,0,0,0-3.44,6.07q0,16.48,0,33A7.07,7.07,0,0,0,5.28,60a6.74,6.74,0,0,0,2.61,2.58c5.62,3.25,24.49,14.07,28.25,16.3a7,7,0,0,0,7.56.07q14.2-8.2,28.41-16.38A6.72,6.72,0,0,0,74.72,60a7.07,7.07,0,0,0,.84-3.49s0-22,0-33"/><path class="cls-2" d="M43.64,1.15a7,7,0,0,0-7.55.07c-3.76,2.22-22.59,13-28.21,16.26a6.56,6.56,0,0,0-3.43,6.05q0,16.44,0,32.88a7.16,7.16,0,0,0,.83,3.48,6.79,6.79,0,0,0,2.61,2.57l5.6,3.23,52-52L43.64,1.15"/><path class="cls-3" d="M47.35,35l11.07.08c0-4.61-4.67-15.9-18.05-15.9-8.53,0-20,5.42-20,21s11.24,20.66,20,20.66c14.17,0,17.56-9.8,17.56-15.34l-10.56-.61s.28,6.41-7.06,6.41c-6.77,0-7.9-8.3-7.9-11.12,0-4.29,1.52-11.18,7.9-11.18a6.85,6.85,0,0,1,7,6"/><rect class="cls-4" width="80" height="80"/></g></g></svg>