<svg xmlns="http://www.w3.org/2000/svg" viewBox="0 0 80 80"><defs><style>.cls-1{fill:#131313;}.cls-2{fill:#1572b6;}.cls-3{fill:#33a9dc;}.cls-4{fill:#fff;}.cls-5{fill:#ebebeb;}.cls-6{fill:none;}</style></defs><g id="レイヤー_2" data-name="レイヤー 2"><g id="レイヤー_1-2" data-name="レイヤー 1"><path class="cls-1" d="M56.07,3h-4.7l4.89,5.31v2.52H46.19V7.84h4.89L46.19,2.53V0h9.89ZM44.19,3H39.48l4.9,5.31v2.52H34.3V7.84h4.89L34.3,2.53V0h9.89Zm-11.77.12H27.35V7.72h5.07V10.8H23.74V0h8.68Z"/><path class="cls-2" d="M16.82,73.58,11.66,15.73H68.34L63.17,73.57,40,80Z"/><path class="cls-3" d="M40,75.08l18.75-5.2,4.41-49.42H40Z"/><path class="cls-4" d="M40,41.41h9.39L50,34.15H40V27.06H57.79L57.62,29,55.88,48.52H40Z"/><path class="cls-5" d="M40,59.84h0L32.1,57.71l-.5-5.66H24.48l1,11.14,14.53,4h0V59.84Z"/><path class="cls-4" d="M48.79,48.21l-.86,9.49L40,59.84v7.39l14.54-4,.11-1.2,1.24-13.8H48.79Z"/><path class="cls-5" d="M40,27.06v7.09H22.89l-.15-1.59L22.42,29l-.17-1.9Zm0,14.35v7.1H32.19l-.14-1.59-.32-3.6-.17-1.91Z"/><rect class="cls-6" width="80" height="80"/></g></g></svg>