<svg xmlns="http://www.w3.org/2000/svg" viewBox="0 0 80 80"><defs><style>.cls-1{fill:#161614;}.cls-2{fill:none;}</style></defs><g id="レイヤー_2" data-name="レイヤー 2"><g id="レイヤー_1-2" data-name="レイヤー 1"><path class="cls-1" d="M40,1a40,40,0,0,0-12.65,78c2,.37,2.74-.86,2.74-1.92s0-4.11-.06-7.45C18.91,72,16.56,64.85,16.56,64.85,14.74,60.23,12.12,59,12.12,59c-3.63-2.48.27-2.43.27-2.43,4,.28,6.13,4.12,6.13,4.12C22.09,66.81,27.88,65,30.16,64a8.54,8.54,0,0,1,2.54-5.35c-8.88-1-18.22-4.44-18.22-19.77A15.47,15.47,0,0,1,18.6,28.16c-.42-1-1.79-5.07.39-10.58,0,0,3.35-1.08,11,4.1a37.82,37.82,0,0,1,20,0c7.64-5.18,11-4.1,11-4.1,2.18,5.51.81,9.57.39,10.58A15.43,15.43,0,0,1,65.52,38.9c0,15.36-9.36,18.74-18.27,19.73C48.69,59.88,50,62.31,50,66c0,5.35,0,9.66,0,11,0,1.06.72,2.31,2.75,1.92A40,40,0,0,0,40,1"/><path class="cls-1" d="M15,58a.5.5,0,0,1-.68.12c-.29-.13-.46-.4-.36-.6s.4-.26.69-.12.45.4.35.6m2,1.75c-.19.18-.56.1-.82-.18s-.31-.65-.11-.83.55-.1.82.18.31.66.11.83M18.3,62c-.25.17-.65,0-.89-.34s-.25-.79,0-1,.64,0,.89.34.25.79,0,1m2.28,2.6c-.22.24-.68.18-1-.15a.76.76,0,0,1-.22-1c.22-.25.69-.18,1,.15s.46.78.22,1m3,.88c-.09.31-.54.46-1,.32s-.75-.5-.65-.82.54-.46,1-.32.75.5.65.82m3.36.37c0,.33-.37.61-.85.61s-.86-.25-.87-.58.38-.6.85-.61.87.25.87.58m3.3-.12c.06.32-.28.65-.75.74s-.89-.12-1-.44.28-.66.74-.74.9.11,1,.44"/><rect class="cls-2" width="80" height="80"/></g></g></svg>