<svg xmlns="http://www.w3.org/2000/svg" viewBox="0 0 80 80"><defs><style>.cls-1{fill:#e44d26;}.cls-2{fill:#f16529;}.cls-3{fill:#ebebeb;}.cls-4{fill:#fff;}.cls-5{fill:none;}</style></defs><g id="レイヤー_2" data-name="レイヤー 2"><g id="レイヤー_1-2" data-name="レイヤー 1"><path class="cls-1" d="M68.34,15.72,63.18,73.57,40,80,16.82,73.57,11.66,15.72Z"/><path class="cls-2" d="M40,75.08l18.75-5.2,4.42-49.43H40Z"/><path class="cls-3" d="M30,34.64H40V27.55H22.21l.17,1.9L24.12,49H40V41.91H30.61Zm1.6,17.91H24.44l1,11.14,14.54,4h0V60.34h0l-7.9-2.13-.51-5.66Z"/><path d="M16.93,0h3.61V3.56h3.3V0h3.6V10.79h-3.6V7.18h-3.3v3.61H16.93V0ZM32.19,3.58H29V0H39V3.58H35.79v7.21h-3.6V3.58ZM40.55,0h3.76l2.31,3.79L48.93,0h3.76V10.79H49.1V5.44L46.62,9.28h-.06L44.08,5.44v5.35H40.55ZM54.49,0h3.6V7.22h5.08v3.57H54.49V0Z"/><path class="cls-4" d="M40,49h8.73l-.82,9.21L40,60.34v7.38l14.54-4,.11-1.2L56.3,43.81l.17-1.9H40V49Zm0-14.37H57.11l.15-1.59.32-3.6.17-1.9H40v7.08Z"/><rect class="cls-5" width="80" height="80"/></g></g></svg>