<svg xmlns="http://www.w3.org/2000/svg" xmlns:xlink="http://www.w3.org/1999/xlink" viewBox="0 0 80 80"><defs><style>.cls-1{fill:url(#名称未設定グラデーション_2);}.cls-2{fill:#ff7f18;}.cls-3{fill:none;}</style><radialGradient id="名称未設定グラデーション_2" cx="-679.25" cy="-442.08" r="0.02" gradientTransform="matrix(2291.67, 0, 0, -2218.75, 1556650.79, -980840.29)" gradientUnits="userSpaceOnUse"><stop offset="0" stop-color="#423325" stop-opacity="0.98"/><stop offset="1" stop-color="#1c0a00"/></radialGradient></defs><g id="レイヤー_2" data-name="レイヤー 2"><g id="レイヤー_1-2" data-name="レイヤー 1"><path class="cls-1" d="M3.33,4.33H76.67V75.67H3.33Z"/><path class="cls-2" d="M3.33,4.33H76.67V75.67H3.33ZM0,79H80V1H0ZM52.4,28.8c0-.27.1-.4.4-.4H58c.27,0,.4.1.4.4V55.1c0,.27-.06.4-.4.4H52.87c-.34,0-.44-.17-.44-.43V28.8ZM52,21.23a3.4,3.4,0,1,1,6.8,0,3.18,3.18,0,0,1-3.46,3.4A3.13,3.13,0,0,1,52,21.23ZM37,39.77c-.93-3.7-3.13-11.77-4-15.67H33c-.7,3.9-2.47,10.5-3.87,15.67Zm-9.26,5.4-2.64,10c-.06.26-.16.33-.5.33h-4.9c-.33,0-.4-.1-.33-.5l9.47-33.13a11.42,11.42,0,0,0,.33-2.77c0-.23.1-.33.27-.33h7c.23,0,.33.06.4.33l10.6,36c.06.26,0,.43-.27.43H41.67c-.27,0-.44-.07-.5-.3l-2.74-10Z"/><rect class="cls-3" width="80" height="80"/></g></g></svg>