<svg xmlns="http://www.w3.org/2000/svg" viewBox="0 0 80 80"><defs><style>.cls-1{fill:#f7df1e;}</style></defs><g id="レイヤー_2" data-name="レイヤー 2"><g id="レイヤー_1-2" data-name="レイヤー 1"><path class="cls-1" d="M0,0H80V80H0Z"/><path d="M21,66.85l6.13-3.7C28.34,65.24,29.41,67,32,67s4-1,4-4.72V36.73h7.52V62.4c0,7.78-4.57,11.33-11.23,11.33-6,0-9.5-3.12-11.28-6.88m26.59-.8,6.12-3.55c1.61,2.64,3.71,4.57,7.41,4.57,3.12,0,5.1-1.56,5.1-3.71,0-2.57-2-3.49-5.47-5l-1.88-.81c-5.43-2.31-9-5.21-9-11.33,0-5.64,4.3-9.93,11-9.93,4.78,0,8.22,1.66,10.69,6l-5.85,3.76c-1.29-2.31-2.69-3.22-4.84-3.22a3.28,3.28,0,0,0-3.6,3.22c0,2.26,1.4,3.17,4.62,4.57l1.88.8c6.39,2.74,10,5.53,10,11.82,0,6.76-5.32,10.47-12.46,10.47-7,0-11.49-3.33-13.69-7.68"/></g></g></svg>