<svg xmlns="http://www.w3.org/2000/svg" viewBox="0 0 80 80"><defs><style>.cls-1{fill:#e76f00;}.cls-2{fill:#5382a1;}.cls-3{fill:none;}</style></defs><g id="レイヤー_2" data-name="レイヤー 2"><g id="レイヤー_1-2" data-name="レイヤー 1"><path class="cls-1" d="M59.69,63.09h-.3v-.17h.81v.17h-.29v.84h-.22Zm1.62,0h0l-.3.8h-.14l-.29-.8h0v.8h-.2v-1h.3l.27.71.28-.71h.29v1h-.2Z"/><path class="cls-2" d="M32.71,42.44s-2.09,1.22,1.5,1.63a31.68,31.68,0,0,0,11.36-.48,19.54,19.54,0,0,0,3,1.47c-10.74,4.6-24.31-.27-15.88-2.62m-1.31-6s-2.35,1.74,1.24,2.11a44.35,44.35,0,0,0,14.66-.7,6.46,6.46,0,0,0,2.26,1.37c-13,3.8-27.45.3-18.16-2.78"/><path class="cls-1" d="M42.47,26.24c2.64,3-.7,5.79-.7,5.79s6.72-3.47,3.64-7.82c-2.89-4.05-5.1-6.06,6.87-13,0,0-18.78,4.69-9.81,15"/><path class="cls-2" d="M56.67,46.88s1.56,1.28-1.7,2.27c-6.2,1.88-25.81,2.44-31.26.07-2-.85,1.72-2,2.87-2.28a7.42,7.42,0,0,1,1.89-.21c-2.17-1.54-14.07,3-6,4.31,21.9,3.55,39.93-1.6,34.24-4.16m-23-16.68s-10,2.37-3.53,3.23a74.6,74.6,0,0,0,13.19-.14c4.13-.35,8.27-1.09,8.27-1.09a17.79,17.79,0,0,0-2.5,1.35C39,36.21,19.45,35,25.09,32.25a18.81,18.81,0,0,1,8.63-2.05m17.89,10c10.3-5.35,5.54-10.49,2.22-9.79a8.32,8.32,0,0,0-1.18.31,1.89,1.89,0,0,1,.88-.68c6.57-2.31,11.63,6.82-2.12,10.43a.77.77,0,0,0,.2-.27"/><path class="cls-1" d="M45.41,0S51.11,5.7,40,14.47c-8.91,7-2,11,0,15.63-5.19-4.69-9-8.82-6.45-12.66C37.3,11.8,47.71,9.06,45.41,0"/><path class="cls-2" d="M34.73,54.7c9.89.63,25.06-.35,25.42-5,0,0-.69,1.78-8.17,3.18a81,81,0,0,1-25,.39s1.26,1,7.75,1.46"/><path class="cls-1" d="M33.11,72.57a4.45,4.45,0,0,1-2.8,1.26,1.79,1.79,0,0,1-1.94-2c0-1.31.73-2.27,3.66-2.27h1.08v3m2.58,2.9v-9c0-2.3-1.31-3.81-4.47-3.81a11.82,11.82,0,0,0-4.77,1l.38,1.59a11.1,11.1,0,0,1,3.68-.73c1.82,0,2.6.73,2.6,2.25V68h-.9c-4.42,0-6.41,1.72-6.41,4.29,0,2.22,1.31,3.48,3.78,3.48a5.72,5.72,0,0,0,3.89-1.61l.2,1.36Zm8.58,0H41.06L37.2,62.9H40l2.4,7.72L42.93,73a48.59,48.59,0,0,0,2.5-10.05h2.73a51.09,51.09,0,0,1-3.89,12.57m12.31-2.9a4.48,4.48,0,0,1-2.8,1.26,1.79,1.79,0,0,1-2-2c0-1.31.73-2.27,3.66-2.27h1.09v3m2.57,2.9v-9c0-2.3-1.31-3.81-4.46-3.81a11.74,11.74,0,0,0-4.77,1l.38,1.59A11,11,0,0,1,54,64.57c1.82,0,2.6.73,2.6,2.25V68h-.91c-4.42,0-6.41,1.72-6.41,4.29,0,2.22,1.31,3.48,3.78,3.48a5.72,5.72,0,0,0,3.89-1.61l.2,1.36ZM23,77.6A6.81,6.81,0,0,1,19.76,80l-1.27-1.49a5.34,5.34,0,0,0,2.23-2.09,8.07,8.07,0,0,0,.48-3.64V58.43h2.73V72.58c0,2.8-.22,3.92-.95,5"/><rect class="cls-3" width="80" height="80"/></g></g></svg>