<svg xmlns="http://www.w3.org/2000/svg" viewBox="0 0 80 80.01"><defs><style>.cls-1{fill:none;}</style></defs><g id="レイヤー_2" data-name="レイヤー 2"><g id="レイヤー_1-2" data-name="レイヤー 1"><path d="M37.38,0,36.17.13A40.14,40.14,0,0,0,7.42,16.71,39.66,39.66,0,0,0,.36,34.19,30.61,30.61,0,0,0,0,40a30.73,30.73,0,0,0,.36,5.83A40.16,40.16,0,0,0,27.72,78.16a41.92,41.92,0,0,0,8.45,1.75,69.9,69.9,0,0,0,7.66,0A40.27,40.27,0,0,0,58.24,75.7c.69-.35.83-.45.73-.53s-3-4-6.51-8.73l-6.4-8.64L38,45.93C33.63,39.41,30,34.08,30,34.08s-.06,5.26-.07,11.7c0,11.27,0,11.72-.18,12a1.43,1.43,0,0,1-.68.71c-.25.12-.47.15-1.65.15H26l-.36-.23a1.57,1.57,0,0,1-.52-.57L25,57.48V41.8l0-15.69.25-.31a2.06,2.06,0,0,1,.58-.47c.32-.16.44-.17,1.79-.17,1.6,0,1.87.06,2.28.51.12.13,4.46,6.66,9.65,14.54L55.35,64.12l6.34,9.59L62,73.5a41.1,41.1,0,0,0,8.21-7.21,39.8,39.8,0,0,0,9.42-20.45A30.73,30.73,0,0,0,80,40a30.61,30.61,0,0,0-.36-5.82A40.15,40.15,0,0,0,52.28,1.87,42.39,42.39,0,0,0,44,.12C43.2,0,38,0,37.38,0Zm16.38,24.2a1.56,1.56,0,0,1,.79.92c.06.2.07,4.55.06,14.35l0,14.06-2.47-3.8L49.62,46V35.73c0-6.61,0-10.32.08-10.5a1.59,1.59,0,0,1,.77-1c.32-.16.44-.18,1.67-.18s1.36,0,1.62.16Z"/><rect class="cls-1" y="0.01" width="80" height="80"/></g></g></svg>