<svg xmlns="http://www.w3.org/2000/svg" viewBox="0 0 80 80"><defs><style>.cls-1{fill:#00c58e;}.cls-2{fill:#2f495e;}.cls-3{fill:#108775;}.cls-4{fill:none;}</style></defs><g id="レイヤー_2" data-name="レイヤー 2"><g id="レイヤー_1-2" data-name="レイヤー 1"><path class="cls-1" d="M45.67,26.34l-2.74,4.83L33.55,14.64,4.75,65.36h19.5A4.79,4.79,0,0,0,29,70.19H4.75A4.73,4.73,0,0,1,.64,67.77a4.89,4.89,0,0,1,0-4.83l28.8-50.71a4.7,4.7,0,0,1,8.22,0l8,14.11Z"/><path class="cls-2" d="M66.46,62.94l-18-31.77-2.75-4.83-2.74,4.83-18,31.77a4.94,4.94,0,0,0,0,4.83A4.76,4.76,0,0,0,29,70.19H62.34a4.74,4.74,0,0,0,4.12-2.42,4.89,4.89,0,0,0,0-4.83ZM29,65.36,45.67,36,62.34,65.36Z"/><path class="cls-3" d="M79.36,67.77a4.73,4.73,0,0,1-4.11,2.42H62.34a4.79,4.79,0,0,0,4.75-4.83h8.15L52.12,24.64l-3.7,6.53-2.75-4.83L48,22.22a4.72,4.72,0,0,1,8.23,0L79.36,62.94a4.89,4.89,0,0,1,0,4.83Z"/><rect class="cls-4" width="80" height="80"/></g></g></svg>