<svg xmlns="http://www.w3.org/2000/svg" xmlns:xlink="http://www.w3.org/1999/xlink" viewBox="0 0 80 80"><defs><style>.cls-1{fill:url(#名称未設定グラデーション_4);}.cls-2{fill:url(#名称未設定グラデーション_3);}.cls-3{fill:none;}</style><linearGradient id="名称未設定グラデーション_4" x1="-946.27" y1="-137.5" x2="-946.25" y2="-137.52" gradientTransform="matrix(1849.27, 0, 0, -1853.39, 1749916.09, -254839.79)" gradientUnits="userSpaceOnUse"><stop offset="0" stop-color="#387eb8"/><stop offset="1" stop-color="#366994"/></linearGradient><linearGradient id="名称未設定グラデーション_3" x1="-946.61" y1="-137.18" x2="-946.58" y2="-137.2" gradientTransform="matrix(1849.27, 0, 0, -1853.39, 1750560.27, -254212.44)" gradientUnits="userSpaceOnUse"><stop offset="0" stop-color="#ffe052"/><stop offset="1" stop-color="#ffc331"/></linearGradient></defs><g id="レイヤー_2" data-name="レイヤー 2"><g id="レイヤー_1-2" data-name="レイヤー 1"><path class="cls-1" d="M39.71.21C19.4.21,20.67,9,20.67,9l0,9.12H40.07v2.74H13S0,19.41,0,39.9,11.34,59.66,11.34,59.66h6.77V50.15s-.36-11.34,11.16-11.34H48.5S59.3,39,59.3,28.37V10.83S60.94.21,39.71.21ZM29,6.34a3.48,3.48,0,0,1,3.48,3.48h0A3.48,3.48,0,0,1,29,13.32h0a3.48,3.48,0,0,1-3.49-3.48h0A3.5,3.5,0,0,1,29,6.34Z"/><path class="cls-2" d="M40.29,79.79c20.31,0,19-8.81,19-8.81l0-9.12H39.93V59.12H67s13,1.48,13-19S68.66,20.34,68.66,20.34H61.89v9.51s.36,11.34-11.16,11.34H31.5S20.7,41,20.7,51.63V69.17S19.06,79.79,40.29,79.79ZM51,73.66a3.48,3.48,0,0,1-3.48-3.48h0A3.49,3.49,0,0,1,51,66.68h0a3.48,3.48,0,0,1,3.49,3.48h0A3.49,3.49,0,0,1,51,73.66Z"/><rect class="cls-3" width="80" height="80"/></g></g></svg>