<svg xmlns="http://www.w3.org/2000/svg" viewBox="0 0 80 80"><defs><style>.cls-1{fill:#c00;}.cls-2{fill:#fff;}</style></defs><g id="レイヤー_2" data-name="レイヤー 2"><g id="レイヤー_1-2" data-name="レイヤー 1"><rect class="cls-1" width="80" height="80"/><path class="cls-2" d="M67.78,45.76v3.43H74a3.54,3.54,0,0,0,3.52-3.53V44.34A3.5,3.5,0,0,0,74,40.81H70.89V39.22H77V35.77H71.13a3.61,3.61,0,0,0-3.54,3.58v1.2a3.54,3.54,0,0,0,3.54,3.52c4.27,0-1,0,2.92,0v1.67m-39.46-.82s3.32-.28,3.32-4.56a4.53,4.53,0,0,0-4-4.68H26.65V49.19h3.64V45.93l3.15,3.26h5.38l-4.23-4.27Zm-1.4-2.76h-2.9V39.07h2.92A1.51,1.51,0,0,1,34,40.6a1.58,1.58,0,0,1-.83,1.56Zm13.7-6.39h-3.7a3.55,3.55,0,0,0-3.52,3.53v9.89h3.69V46.82h3.47v2.37h3.58V39.3a3.5,3.5,0,0,0-3.52-3.53ZM46.83,43H43.34V39.71s0-.74,1.16-.74h1.27c1,0,1,.74,1,.74V43Zm5.27-7.22h3.84V49.19H52.1Zm9.24,9.95V35.77H57.51V49.19h9V45.72Z"/><path class="cls-2" d="M3.83,49.19h15S15.93,36.13,25.4,30.85c2.07-1,8.64-4.76,19.4,3.2a8,8,0,0,1,.67-.51s-9.86-9.83-20.82-8.74c-5.52.5-12.3,5.52-16.28,12.15A32.64,32.64,0,0,0,3.83,49.19Z"/><path class="cls-2" d="M3.83,49.19h15S15.93,36.13,25.4,30.85c2.07-1,8.64-4.76,19.4,3.2a8,8,0,0,1,.67-.51s-9.86-9.83-20.82-8.74c-5.52.5-12.3,5.52-16.28,12.15A32.64,32.64,0,0,0,3.83,49.19Z"/><path class="cls-2" d="M3.83,49.19h15S15.93,36.13,25.4,30.85c2.07-1,8.64-4.76,19.4,3.2a8,8,0,0,1,.67-.51s-9.86-9.83-20.82-8.74c-5.54.5-12.32,5.52-16.3,12.15A32.57,32.57,0,0,0,3.83,49.19ZM35,25.86l.07-1.26a8.52,8.52,0,0,0-1.83-.67l-.08,1.25C33.8,25.39,34.4,25.62,35,25.86Z"/><path class="cls-2" d="M33.21,29.88l-.08,1.19A11,11,0,0,1,35,31.3l.07-1.17A12.66,12.66,0,0,0,33.21,29.88ZM26.2,24h.19L26,22.81a14.37,14.37,0,0,0-1.82.12l.36,1.12A15.19,15.19,0,0,1,26.2,24Zm.91,7,.43,1.31a11.35,11.35,0,0,1,1.65-.66l-.41-1.25a13.13,13.13,0,0,0-1.67.6Zm-8.6-5-.85-1.31c-.48.25-1,.51-1.48.82l.87,1.32c.49-.3,1-.58,1.46-.83Zm3.88,8.52.91,1.37a10,10,0,0,1,1.12-1.35l-.85-1.28a9.92,9.92,0,0,0-1.18,1.26Zm-2.75,6.1,1.54,1.22a14.38,14.38,0,0,1,.4-2.22L20.21,38.5c-.24.7-.41,1.4-.57,2.08Zm-8.29-9L10,30.41c-.49.48-1,.95-1.4,1.42l1.46,1.25a18.11,18.11,0,0,1,1.29-1.49ZM5.63,40.05l-2.18-.79c-.36.81-.76,1.76-1,2.27l2.18.8C4.92,41.68,5.32,40.75,5.63,40.05ZM19.36,45.4a18.54,18.54,0,0,0,.23,2.38l2.27.82a24.21,24.21,0,0,1-.45-2.46Z"/></g></g></svg>