<svg xmlns="http://www.w3.org/2000/svg" viewBox="0 0 80 80"><defs><style>.cls-1{fill:#61dafb;}.cls-2{fill:none;}</style></defs><g id="レイヤー_2" data-name="レイヤー 2"><g id="レイヤー_1-2" data-name="レイヤー 1"><path class="cls-1" d="M80,40c0-5.3-6.64-10.32-16.81-13.44C65.54,16.2,64.49,8,59.89,5.31a7.15,7.15,0,0,0-3.65-.92V8a3.87,3.87,0,0,1,1.86.42c2.22,1.28,3.18,6.12,2.43,12.35-.18,1.53-.47,3.15-.83,4.79a79.45,79.45,0,0,0-10.36-1.77,79.32,79.32,0,0,0-6.78-8.16C47.88,10.72,52.87,8,56.26,8V4.38C51.77,4.38,45.9,7.57,40,13.12,34,7.61,28.16,4.44,23.68,4.44V8.08c3.37,0,8.38,2.69,13.69,7.6a77.52,77.52,0,0,0-6.73,8.14,75.77,75.77,0,0,0-10.37,1.79c-.38-1.63-.65-3.21-.85-4.73-.77-6.23.18-11.07,2.38-12.36a3.69,3.69,0,0,1,1.88-.42V4.46A7.29,7.29,0,0,0,20,5.37C15.41,8,14.38,16.25,16.75,26.59,6.6,29.72,0,34.72,0,40S6.64,50.33,16.81,53.44c-2.35,10.38-1.3,18.63,3.3,21.27a7.15,7.15,0,0,0,3.66.91c4.49,0,10.36-3.19,16.3-8.74,5.93,5.51,11.8,8.68,16.29,8.68A7.26,7.26,0,0,0,60,74.64c4.58-2.64,5.61-10.87,3.25-21.21C73.4,50.31,80,45.29,80,40ZM58.77,29.13c-.6,2.11-1.35,4.27-2.2,6.44-.67-1.3-1.37-2.61-2.14-3.91s-1.55-2.58-2.35-3.82c2.32.35,4.55.77,6.69,1.29ZM51.3,46.5c-1.27,2.2-2.58,4.29-3.93,6.23q-3.65.32-7.37.32c-2.46,0-4.92-.11-7.34-.31-1.35-1.94-2.67-4-3.94-6.19s-2.37-4.31-3.4-6.49c1-2.19,2.16-4.37,3.38-6.51s2.58-4.29,3.93-6.23Q36.28,27,40,27c2.46,0,4.92.11,7.34.31,1.35,1.94,2.67,4,3.94,6.19s2.37,4.31,3.4,6.49c-1,2.19-2.16,4.37-3.38,6.51Zm5.27-2.12c.88,2.18,1.63,4.37,2.25,6.49-2.14.52-4.39,1-6.72,1.3.8-1.25,1.6-2.54,2.35-3.86s1.45-2.63,2.12-3.93ZM40,61.78a69.1,69.1,0,0,1-4.53-5.22c1.47.06,3,.11,4.48.11s3.05,0,4.54-.11A64.65,64.65,0,0,1,40,61.78ZM27.9,52.17c-2.32-.34-4.55-.76-6.69-1.29.61-2.1,1.36-4.27,2.21-6.44.66,1.31,1.37,2.61,2.13,3.92S27.1,50.93,27.9,52.17ZM40,18.24a65.12,65.12,0,0,1,4.53,5.22c-1.46-.07-3-.12-4.48-.12s-3,0-4.53.12A61.07,61.07,0,0,1,40,18.24Zm-12.07,9.6c-.79,1.26-1.59,2.55-2.34,3.87s-1.46,2.61-2.12,3.91c-.88-2.18-1.63-4.37-2.25-6.49,2.13-.5,4.38-.94,6.71-1.29ZM13.13,48.26C7.35,45.8,3.62,42.57,3.62,40s3.73-5.81,9.51-8.25c1.4-.61,2.93-1.14,4.51-1.65A79.3,79.3,0,0,0,21.31,40a78.16,78.16,0,0,0-3.62,9.88c-1.61-.5-3.14-1.06-4.56-1.66Zm8.77,23.3c-2.22-1.27-3.18-6.11-2.43-12.34.18-1.54.47-3.15.83-4.8A77.76,77.76,0,0,0,30.66,56.2a78.11,78.11,0,0,0,6.78,8.15C32.12,69.29,27.13,72,23.74,72a3.79,3.79,0,0,1-1.84-.44ZM60.58,59.14c.77,6.22-.18,11.07-2.38,12.36a3.69,3.69,0,0,1-1.88.42c-3.37,0-8.38-2.69-13.69-7.6a77.52,77.52,0,0,0,6.73-8.14,75.77,75.77,0,0,0,10.37-1.79A44.62,44.62,0,0,1,60.58,59.14Zm6.28-10.88c-1.41.6-2.94,1.14-4.52,1.65A77.2,77.2,0,0,0,58.67,40a77.3,77.3,0,0,0,3.62-9.89c1.62.51,3.15,1.06,4.58,1.67,5.78,2.46,9.51,5.69,9.51,8.25s-3.75,5.8-9.52,8.25Z"/><circle class="cls-1" cx="39.98" cy="40.01" r="7.45"/><rect class="cls-2" width="80" height="80"/></g></g></svg>