<svg xmlns="http://www.w3.org/2000/svg" viewBox="0 0 80 80"><defs><style>.cls-1{fill:#8ed6fb;}.cls-2{fill:#1c78c0;}.cls-3{fill:none;}</style></defs><g id="レイヤー_2" data-name="レイヤー 2"><g id="レイヤー_1-2" data-name="レイヤー 1"><path class="cls-1" d="M73.85,61.66,41.42,80V65.72L61.62,54.6Zm2.21-2V21.3L64.2,28.14V52.8l11.86,6.85Zm-69.91,2L38.58,80V65.72L18.38,54.6,6.15,61.66Zm-2.21-2V21.3L15.8,28.14V52.8L3.94,59.65ZM5.32,18.81,38.58,0V13.81L17.27,25.53l-.16.09Zm69.36,0L41.42,0V13.81L62.73,25.53l.16.09Z"/><path class="cls-2" d="M38.58,63.09l-19.93-11V30.42L38.58,41.93V63.09m2.84,0,19.93-11V30.42L41.42,41.93V63.09M20,27.91l20-11,20,11L40,39.46,20,27.91"/><rect class="cls-3" width="80" height="80"/></g></g></svg>